<svg xmlns="http://www.w3.org/2000/svg" viewBox="0 0 32 32" width="32" height="32"><circle cx="16" cy="16" r="16" fill="#F7931A"></circle><path fill="#fff" d="M21.3 14.1c.3-1.9-1.2-2.9-3.2-3.6l.6-2.6-1.6-.4-.6 2.5c-.4-.1-.9-.2-1.3-.3l.6-2.5-1.6-.4-.6 2.6c-.4-.1-.7-.2-1-.2l-2.2-.6-.4 1.7s1.2.3 1.2.3c.7.2.8.6.8 1l-1.9 7.6c-.1.2-.3.5-.7.4 0 0-1.2-.3-1.2-.3l-.8 1.8 2.1.5c.4.1.8.2 1.1.3l-.6 2.6 1.6.4.6-2.6c.4.1.9.2 1.3.3l-.6 2.6 1.6.4.6-2.6c2.7.5 4.7.3 5.6-2.1.7-2 0-3.1-1.4-3.8 1-.3 1.8-.9 2-2.3zm-3.6 5c-.5 2-3.9.9-5 .7l.8-3.2c1.1.3 4.7.8 4.2 2.5zm.5-5.1c-.5 1.8-3.3.9-4.2.7l.7-2.9c.9.2 3.9.6 3.5 2.2z"></path></svg>